<mxfile host="www.draw.io" modified="2020-01-24T21:53:56.485Z" agent="Mozilla/5.0 (Windows NT 10.0; Win64; x64) AppleWebKit/537.36 (KHTML, like Gecko) Chrome/79.0.3945.117 Safari/537.36" etag="1YhplKUXCG21o_oHOSPM" version="12.5.6" type="github">
  <diagram id="YVPXlS9-_-ItTWUG5ABd" name="Page-1">
    <mxGraphModel dx="3457" dy="1457" grid="1" gridSize="10" guides="1" tooltips="1" connect="1" arrows="1" fold="1" page="1" pageScale="1" pageWidth="850" pageHeight="1100" math="0" shadow="0">
      <root>
        <mxCell id="0"/>
        <mxCell id="1" parent="0"/>
        <mxCell id="G6NcszaFxuf0PtNc5N1b-22" value="Coffee State" style="swimlane;fontSize=28;startSize=58;" parent="1" vertex="1">
          <mxGeometry x="-777.5" y="682" width="1717.5" height="340" as="geometry"/>
        </mxCell>
        <mxCell id="G6NcszaFxuf0PtNc5N1b-25" value="" style="edgeStyle=orthogonalEdgeStyle;rounded=0;orthogonalLoop=1;jettySize=auto;html=1;fontSize=28;" parent="G6NcszaFxuf0PtNc5N1b-22" source="G6NcszaFxuf0PtNc5N1b-23" target="G6NcszaFxuf0PtNc5N1b-24" edge="1">
          <mxGeometry relative="1" as="geometry"/>
        </mxCell>
        <mxCell id="G6NcszaFxuf0PtNc5N1b-23" value="Harvested" style="rounded=0;whiteSpace=wrap;html=1;fontSize=28;" parent="G6NcszaFxuf0PtNc5N1b-22" vertex="1">
          <mxGeometry x="67" y="140" width="153" height="60" as="geometry"/>
        </mxCell>
        <mxCell id="G6NcszaFxuf0PtNc5N1b-27" value="" style="edgeStyle=orthogonalEdgeStyle;rounded=0;orthogonalLoop=1;jettySize=auto;html=1;fontSize=28;" parent="G6NcszaFxuf0PtNc5N1b-22" source="G6NcszaFxuf0PtNc5N1b-24" target="G6NcszaFxuf0PtNc5N1b-26" edge="1">
          <mxGeometry relative="1" as="geometry"/>
        </mxCell>
        <mxCell id="G6NcszaFxuf0PtNc5N1b-24" value="Processed" style="rounded=0;whiteSpace=wrap;html=1;fontSize=28;" parent="G6NcszaFxuf0PtNc5N1b-22" vertex="1">
          <mxGeometry x="267" y="140" width="153" height="60" as="geometry"/>
        </mxCell>
        <mxCell id="G6NcszaFxuf0PtNc5N1b-29" value="" style="edgeStyle=orthogonalEdgeStyle;rounded=0;orthogonalLoop=1;jettySize=auto;html=1;fontSize=28;" parent="G6NcszaFxuf0PtNc5N1b-22" source="G6NcszaFxuf0PtNc5N1b-26" target="G6NcszaFxuf0PtNc5N1b-28" edge="1">
          <mxGeometry relative="1" as="geometry"/>
        </mxCell>
        <mxCell id="G6NcszaFxuf0PtNc5N1b-26" value="Packed" style="rounded=0;whiteSpace=wrap;html=1;fontSize=28;" parent="G6NcszaFxuf0PtNc5N1b-22" vertex="1">
          <mxGeometry x="467" y="140" width="120" height="60" as="geometry"/>
        </mxCell>
        <mxCell id="G6NcszaFxuf0PtNc5N1b-31" value="" style="edgeStyle=orthogonalEdgeStyle;rounded=0;orthogonalLoop=1;jettySize=auto;html=1;fontSize=28;" parent="G6NcszaFxuf0PtNc5N1b-22" source="G6NcszaFxuf0PtNc5N1b-28" target="G6NcszaFxuf0PtNc5N1b-30" edge="1">
          <mxGeometry relative="1" as="geometry"/>
        </mxCell>
        <mxCell id="G6NcszaFxuf0PtNc5N1b-28" value="OnSale" style="rounded=0;whiteSpace=wrap;html=1;fontSize=28;" parent="G6NcszaFxuf0PtNc5N1b-22" vertex="1">
          <mxGeometry x="667" y="140" width="120" height="60" as="geometry"/>
        </mxCell>
        <mxCell id="G6NcszaFxuf0PtNc5N1b-33" value="" style="edgeStyle=orthogonalEdgeStyle;rounded=0;orthogonalLoop=1;jettySize=auto;html=1;fontSize=28;" parent="G6NcszaFxuf0PtNc5N1b-22" source="G6NcszaFxuf0PtNc5N1b-30" target="G6NcszaFxuf0PtNc5N1b-32" edge="1">
          <mxGeometry relative="1" as="geometry"/>
        </mxCell>
        <mxCell id="G6NcszaFxuf0PtNc5N1b-30" value="Sold" style="rounded=0;whiteSpace=wrap;html=1;fontSize=28;" parent="G6NcszaFxuf0PtNc5N1b-22" vertex="1">
          <mxGeometry x="867" y="140" width="120" height="60" as="geometry"/>
        </mxCell>
        <mxCell id="G6NcszaFxuf0PtNc5N1b-35" value="" style="edgeStyle=orthogonalEdgeStyle;rounded=0;orthogonalLoop=1;jettySize=auto;html=1;fontSize=28;entryX=0;entryY=0.5;entryDx=0;entryDy=0;" parent="G6NcszaFxuf0PtNc5N1b-22" source="G6NcszaFxuf0PtNc5N1b-32" target="G6NcszaFxuf0PtNc5N1b-36" edge="1">
          <mxGeometry relative="1" as="geometry">
            <mxPoint x="1287.0000000000005" y="170" as="targetPoint"/>
          </mxGeometry>
        </mxCell>
        <mxCell id="G6NcszaFxuf0PtNc5N1b-32" value="Shipped" style="rounded=0;whiteSpace=wrap;html=1;fontSize=28;" parent="G6NcszaFxuf0PtNc5N1b-22" vertex="1">
          <mxGeometry x="1087" y="140" width="120" height="60" as="geometry"/>
        </mxCell>
        <mxCell id="G6NcszaFxuf0PtNc5N1b-118" value="" style="edgeStyle=orthogonalEdgeStyle;rounded=0;orthogonalLoop=1;jettySize=auto;html=1;fontSize=28;" parent="G6NcszaFxuf0PtNc5N1b-22" source="G6NcszaFxuf0PtNc5N1b-36" target="G6NcszaFxuf0PtNc5N1b-117" edge="1">
          <mxGeometry relative="1" as="geometry"/>
        </mxCell>
        <mxCell id="G6NcszaFxuf0PtNc5N1b-36" value="Received" style="rounded=0;whiteSpace=wrap;html=1;fontSize=28;" parent="G6NcszaFxuf0PtNc5N1b-22" vertex="1">
          <mxGeometry x="1290" y="140" width="147.5" height="60" as="geometry"/>
        </mxCell>
        <mxCell id="G6NcszaFxuf0PtNc5N1b-117" value="Purchased" style="rounded=0;whiteSpace=wrap;html=1;fontSize=28;" parent="G6NcszaFxuf0PtNc5N1b-22" vertex="1">
          <mxGeometry x="1480" y="140" width="157.5" height="60" as="geometry"/>
        </mxCell>
        <mxCell id="G6NcszaFxuf0PtNc5N1b-114" value="" style="html=1;verticalAlign=bottom;startArrow=circle;startFill=1;endArrow=open;startSize=6;endSize=8;fontSize=28;" parent="G6NcszaFxuf0PtNc5N1b-22" edge="1">
          <mxGeometry x="-0.25" y="200" width="80" relative="1" as="geometry">
            <mxPoint x="20" y="168" as="sourcePoint"/>
            <mxPoint x="67" y="167.5" as="targetPoint"/>
            <mxPoint as="offset"/>
          </mxGeometry>
        </mxCell>
        <mxCell id="G6NcszaFxuf0PtNc5N1b-42" value="" style="edgeStyle=orthogonalEdgeStyle;rounded=0;orthogonalLoop=1;jettySize=auto;html=1;fontSize=28;" parent="1" source="G6NcszaFxuf0PtNc5N1b-38" target="G6NcszaFxuf0PtNc5N1b-41" edge="1">
          <mxGeometry relative="1" as="geometry"/>
        </mxCell>
        <mxCell id="G6NcszaFxuf0PtNc5N1b-64" value="" style="edgeStyle=orthogonalEdgeStyle;rounded=0;orthogonalLoop=1;jettySize=auto;html=1;fontSize=28;entryX=0.5;entryY=0;entryDx=0;entryDy=0;entryPerimeter=0;" parent="1" source="G6NcszaFxuf0PtNc5N1b-38" edge="1" target="G6NcszaFxuf0PtNc5N1b-73">
          <mxGeometry relative="1" as="geometry">
            <mxPoint x="-698.5" y="212" as="targetPoint"/>
          </mxGeometry>
        </mxCell>
        <mxCell id="G6NcszaFxuf0PtNc5N1b-38" value="Farmer" style="rounded=1;whiteSpace=wrap;html=1;fontSize=28;" parent="1" vertex="1">
          <mxGeometry x="-758.5" y="72" width="120" height="60" as="geometry"/>
        </mxCell>
        <mxCell id="G6NcszaFxuf0PtNc5N1b-44" value="" style="edgeStyle=orthogonalEdgeStyle;rounded=0;orthogonalLoop=1;jettySize=auto;html=1;fontSize=28;" parent="1" source="G6NcszaFxuf0PtNc5N1b-41" target="G6NcszaFxuf0PtNc5N1b-43" edge="1">
          <mxGeometry relative="1" as="geometry"/>
        </mxCell>
        <mxCell id="G6NcszaFxuf0PtNc5N1b-69" value="" style="edgeStyle=orthogonalEdgeStyle;rounded=0;orthogonalLoop=1;jettySize=auto;html=1;fontSize=28;" parent="1" source="G6NcszaFxuf0PtNc5N1b-41" edge="1">
          <mxGeometry relative="1" as="geometry">
            <mxPoint x="-477.5" y="212" as="targetPoint"/>
          </mxGeometry>
        </mxCell>
        <mxCell id="G6NcszaFxuf0PtNc5N1b-41" value="Farmer" style="rounded=1;whiteSpace=wrap;html=1;fontSize=28;" parent="1" vertex="1">
          <mxGeometry x="-537.5" y="72" width="120" height="60" as="geometry"/>
        </mxCell>
        <mxCell id="G6NcszaFxuf0PtNc5N1b-46" value="" style="edgeStyle=orthogonalEdgeStyle;rounded=0;orthogonalLoop=1;jettySize=auto;html=1;fontSize=28;" parent="1" source="G6NcszaFxuf0PtNc5N1b-43" target="G6NcszaFxuf0PtNc5N1b-45" edge="1">
          <mxGeometry relative="1" as="geometry"/>
        </mxCell>
        <mxCell id="G6NcszaFxuf0PtNc5N1b-92" style="edgeStyle=orthogonalEdgeStyle;rounded=0;orthogonalLoop=1;jettySize=auto;html=1;exitX=0.5;exitY=1;exitDx=0;exitDy=0;entryX=0.5;entryY=0;entryDx=0;entryDy=0;fontSize=28;" parent="1" source="G6NcszaFxuf0PtNc5N1b-43" target="G6NcszaFxuf0PtNc5N1b-80" edge="1">
          <mxGeometry relative="1" as="geometry"/>
        </mxCell>
        <mxCell id="G6NcszaFxuf0PtNc5N1b-43" value="Farmer" style="rounded=1;whiteSpace=wrap;html=1;fontSize=28;" parent="1" vertex="1">
          <mxGeometry x="-277.5" y="72" width="120" height="60" as="geometry"/>
        </mxCell>
        <mxCell id="G6NcszaFxuf0PtNc5N1b-49" value="" style="edgeStyle=orthogonalEdgeStyle;rounded=0;orthogonalLoop=1;jettySize=auto;html=1;fontSize=28;" parent="1" source="G6NcszaFxuf0PtNc5N1b-45" target="G6NcszaFxuf0PtNc5N1b-48" edge="1">
          <mxGeometry relative="1" as="geometry"/>
        </mxCell>
        <mxCell id="G6NcszaFxuf0PtNc5N1b-95" style="edgeStyle=orthogonalEdgeStyle;rounded=0;orthogonalLoop=1;jettySize=auto;html=1;exitX=0.5;exitY=1;exitDx=0;exitDy=0;entryX=0.5;entryY=0;entryDx=0;entryDy=0;fontSize=28;" parent="1" source="G6NcszaFxuf0PtNc5N1b-45" target="G6NcszaFxuf0PtNc5N1b-82" edge="1">
          <mxGeometry relative="1" as="geometry"/>
        </mxCell>
        <mxCell id="G6NcszaFxuf0PtNc5N1b-45" value="Farmer" style="rounded=1;whiteSpace=wrap;html=1;fontSize=28;" parent="1" vertex="1">
          <mxGeometry x="-80" y="72" width="120" height="60" as="geometry"/>
        </mxCell>
        <mxCell id="G6NcszaFxuf0PtNc5N1b-51" value="" style="edgeStyle=orthogonalEdgeStyle;rounded=0;orthogonalLoop=1;jettySize=auto;html=1;fontSize=28;" parent="1" source="G6NcszaFxuf0PtNc5N1b-48" target="G6NcszaFxuf0PtNc5N1b-50" edge="1">
          <mxGeometry relative="1" as="geometry"/>
        </mxCell>
        <mxCell id="G6NcszaFxuf0PtNc5N1b-98" style="edgeStyle=orthogonalEdgeStyle;rounded=0;orthogonalLoop=1;jettySize=auto;html=1;exitX=0.5;exitY=1;exitDx=0;exitDy=0;entryX=0.5;entryY=0;entryDx=0;entryDy=0;fontSize=28;" parent="1" source="G6NcszaFxuf0PtNc5N1b-48" target="G6NcszaFxuf0PtNc5N1b-84" edge="1">
          <mxGeometry relative="1" as="geometry"/>
        </mxCell>
        <mxCell id="G6NcszaFxuf0PtNc5N1b-48" value="Distributor" style="rounded=1;whiteSpace=wrap;html=1;fontSize=28;" parent="1" vertex="1">
          <mxGeometry x="120" y="72" width="120" height="60" as="geometry"/>
        </mxCell>
        <mxCell id="G6NcszaFxuf0PtNc5N1b-53" value="" style="edgeStyle=orthogonalEdgeStyle;rounded=0;orthogonalLoop=1;jettySize=auto;html=1;fontSize=28;" parent="1" source="G6NcszaFxuf0PtNc5N1b-50" edge="1">
          <mxGeometry relative="1" as="geometry">
            <mxPoint x="520" y="102" as="targetPoint"/>
          </mxGeometry>
        </mxCell>
        <mxCell id="G6NcszaFxuf0PtNc5N1b-101" style="edgeStyle=orthogonalEdgeStyle;rounded=0;orthogonalLoop=1;jettySize=auto;html=1;exitX=0.5;exitY=1;exitDx=0;exitDy=0;entryX=0.5;entryY=0;entryDx=0;entryDy=0;fontSize=28;" parent="1" source="G6NcszaFxuf0PtNc5N1b-50" target="G6NcszaFxuf0PtNc5N1b-86" edge="1">
          <mxGeometry relative="1" as="geometry"/>
        </mxCell>
        <mxCell id="G6NcszaFxuf0PtNc5N1b-50" value="Distributor" style="rounded=1;whiteSpace=wrap;html=1;fontSize=28;" parent="1" vertex="1">
          <mxGeometry x="318" y="72" width="120" height="60" as="geometry"/>
        </mxCell>
        <mxCell id="G6NcszaFxuf0PtNc5N1b-107" style="edgeStyle=orthogonalEdgeStyle;rounded=0;orthogonalLoop=1;jettySize=auto;html=1;exitX=0.5;exitY=1;exitDx=0;exitDy=0;entryX=0.5;entryY=0;entryDx=0;entryDy=0;fontSize=28;" parent="1" source="G6NcszaFxuf0PtNc5N1b-54" target="G6NcszaFxuf0PtNc5N1b-90" edge="1">
          <mxGeometry relative="1" as="geometry"/>
        </mxCell>
        <mxCell id="G6NcszaFxuf0PtNc5N1b-150" value="" style="edgeStyle=orthogonalEdgeStyle;rounded=0;orthogonalLoop=1;jettySize=auto;html=1;fontSize=28;" parent="1" source="G6NcszaFxuf0PtNc5N1b-54" target="G6NcszaFxuf0PtNc5N1b-149" edge="1">
          <mxGeometry relative="1" as="geometry"/>
        </mxCell>
        <mxCell id="G6NcszaFxuf0PtNc5N1b-54" value="Retailer" style="rounded=1;whiteSpace=wrap;html=1;fontSize=28;" parent="1" vertex="1">
          <mxGeometry x="522" y="72" width="120" height="60" as="geometry"/>
        </mxCell>
        <mxCell id="G6NcszaFxuf0PtNc5N1b-158" style="edgeStyle=orthogonalEdgeStyle;rounded=0;orthogonalLoop=1;jettySize=auto;html=1;exitX=1;exitY=0.5;exitDx=0;exitDy=0;entryX=0;entryY=0.5;entryDx=0;entryDy=0;fontSize=28;" parent="1" source="G6NcszaFxuf0PtNc5N1b-149" target="G6NcszaFxuf0PtNc5N1b-110" edge="1">
          <mxGeometry relative="1" as="geometry"/>
        </mxCell>
        <mxCell id="G6NcszaFxuf0PtNc5N1b-149" value="Consumer" style="rounded=1;whiteSpace=wrap;html=1;fontSize=28;" parent="1" vertex="1">
          <mxGeometry x="695" y="72" width="120" height="60" as="geometry"/>
        </mxCell>
        <mxCell id="G6NcszaFxuf0PtNc5N1b-66" value="" style="edgeStyle=orthogonalEdgeStyle;rounded=0;orthogonalLoop=1;jettySize=auto;html=1;fontSize=28;entryX=0.047;entryY=-0.007;entryDx=0;entryDy=0;entryPerimeter=0;" parent="1" source="G6NcszaFxuf0PtNc5N1b-73" target="G6NcszaFxuf0PtNc5N1b-22" edge="1">
          <mxGeometry relative="1" as="geometry">
            <mxPoint x="-617.5" y="362" as="targetPoint"/>
          </mxGeometry>
        </mxCell>
        <mxCell id="G6NcszaFxuf0PtNc5N1b-71" value="" style="edgeStyle=orthogonalEdgeStyle;rounded=0;orthogonalLoop=1;jettySize=auto;html=1;fontSize=28;" parent="1" edge="1">
          <mxGeometry relative="1" as="geometry">
            <mxPoint x="-477.5000000000009" y="307" as="sourcePoint"/>
            <mxPoint x="-477.50000000000045" y="387" as="targetPoint"/>
          </mxGeometry>
        </mxCell>
        <mxCell id="G6NcszaFxuf0PtNc5N1b-67" value="isHarvested, verifyCaller" style="rounded=0;whiteSpace=wrap;html=1;fontSize=28;" parent="1" vertex="1">
          <mxGeometry x="-534" y="217" width="166" height="90" as="geometry"/>
        </mxCell>
        <mxCell id="HCurgZhCQCyldbJG9k1g-1" style="edgeStyle=orthogonalEdgeStyle;rounded=0;orthogonalLoop=1;jettySize=auto;html=1;exitX=0.5;exitY=1;exitDx=0;exitDy=0;exitPerimeter=0;entryX=0.177;entryY=0.024;entryDx=0;entryDy=0;entryPerimeter=0;" edge="1" parent="1" source="G6NcszaFxuf0PtNc5N1b-72" target="G6NcszaFxuf0PtNc5N1b-22">
          <mxGeometry relative="1" as="geometry"/>
        </mxCell>
        <mxCell id="G6NcszaFxuf0PtNc5N1b-72" value="process" style="shape=card;whiteSpace=wrap;html=1;fontSize=28;" parent="1" vertex="1">
          <mxGeometry x="-554" y="392" width="163" height="100" as="geometry"/>
        </mxCell>
        <mxCell id="G6NcszaFxuf0PtNc5N1b-73" value="harvest" style="shape=card;whiteSpace=wrap;html=1;fontSize=28;" parent="1" vertex="1">
          <mxGeometry x="-780" y="392" width="163" height="100" as="geometry"/>
        </mxCell>
        <mxCell id="G6NcszaFxuf0PtNc5N1b-93" style="edgeStyle=orthogonalEdgeStyle;rounded=0;orthogonalLoop=1;jettySize=auto;html=1;exitX=0.5;exitY=1;exitDx=0;exitDy=0;entryX=0.5;entryY=0;entryDx=0;entryDy=0;entryPerimeter=0;fontSize=28;" parent="1" source="G6NcszaFxuf0PtNc5N1b-80" target="G6NcszaFxuf0PtNc5N1b-81" edge="1">
          <mxGeometry relative="1" as="geometry"/>
        </mxCell>
        <mxCell id="G6NcszaFxuf0PtNc5N1b-80" value="isProcessed, verifyCaller" style="rounded=0;whiteSpace=wrap;html=1;fontSize=28;" parent="1" vertex="1">
          <mxGeometry x="-300.5" y="222" width="166" height="90" as="geometry"/>
        </mxCell>
        <mxCell id="G6NcszaFxuf0PtNc5N1b-159" style="edgeStyle=orthogonalEdgeStyle;rounded=0;orthogonalLoop=1;jettySize=auto;html=1;exitX=0.5;exitY=1;exitDx=0;exitDy=0;exitPerimeter=0;fontSize=28;" parent="1" source="G6NcszaFxuf0PtNc5N1b-81" edge="1">
          <mxGeometry relative="1" as="geometry">
            <mxPoint x="-216.66666666666652" y="680" as="targetPoint"/>
          </mxGeometry>
        </mxCell>
        <mxCell id="G6NcszaFxuf0PtNc5N1b-81" value="pack" style="shape=card;whiteSpace=wrap;html=1;fontSize=28;" parent="1" vertex="1">
          <mxGeometry x="-298.5" y="392" width="163" height="100" as="geometry"/>
        </mxCell>
        <mxCell id="G6NcszaFxuf0PtNc5N1b-96" style="edgeStyle=orthogonalEdgeStyle;rounded=0;orthogonalLoop=1;jettySize=auto;html=1;exitX=0.5;exitY=1;exitDx=0;exitDy=0;entryX=0.5;entryY=0;entryDx=0;entryDy=0;entryPerimeter=0;fontSize=28;" parent="1" source="G6NcszaFxuf0PtNc5N1b-82" target="G6NcszaFxuf0PtNc5N1b-83" edge="1">
          <mxGeometry relative="1" as="geometry"/>
        </mxCell>
        <mxCell id="G6NcszaFxuf0PtNc5N1b-82" value="&lt;span style=&quot;white-space: normal&quot;&gt;isPacked, verifyCaller&lt;/span&gt;" style="rounded=0;whiteSpace=wrap;html=1;fontSize=28;" parent="1" vertex="1">
          <mxGeometry x="-103" y="222" width="166" height="90" as="geometry"/>
        </mxCell>
        <mxCell id="G6NcszaFxuf0PtNc5N1b-140" style="edgeStyle=orthogonalEdgeStyle;rounded=0;orthogonalLoop=1;jettySize=auto;html=1;exitX=0.5;exitY=1;exitDx=0;exitDy=0;exitPerimeter=0;entryX=0.441;entryY=0;entryDx=0;entryDy=0;fontSize=28;entryPerimeter=0;" parent="1" source="G6NcszaFxuf0PtNc5N1b-83" target="G6NcszaFxuf0PtNc5N1b-22" edge="1">
          <mxGeometry relative="1" as="geometry"/>
        </mxCell>
        <mxCell id="G6NcszaFxuf0PtNc5N1b-83" value="sell" style="shape=card;whiteSpace=wrap;html=1;fontSize=28;" parent="1" vertex="1">
          <mxGeometry x="-101" y="392" width="163" height="100" as="geometry"/>
        </mxCell>
        <mxCell id="G6NcszaFxuf0PtNc5N1b-99" style="edgeStyle=orthogonalEdgeStyle;rounded=0;orthogonalLoop=1;jettySize=auto;html=1;exitX=0.5;exitY=1;exitDx=0;exitDy=0;entryX=0.5;entryY=0;entryDx=0;entryDy=0;entryPerimeter=0;fontSize=28;" parent="1" source="G6NcszaFxuf0PtNc5N1b-84" target="G6NcszaFxuf0PtNc5N1b-85" edge="1">
          <mxGeometry relative="1" as="geometry"/>
        </mxCell>
        <mxCell id="G6NcszaFxuf0PtNc5N1b-84" value="isOnSale, paidEnough, checkValue" style="rounded=0;whiteSpace=wrap;html=1;fontSize=28;" parent="1" vertex="1">
          <mxGeometry x="97" y="222" width="166" height="118" as="geometry"/>
        </mxCell>
        <mxCell id="HCurgZhCQCyldbJG9k1g-4" style="edgeStyle=orthogonalEdgeStyle;rounded=0;orthogonalLoop=1;jettySize=auto;html=1;exitX=0.5;exitY=1;exitDx=0;exitDy=0;exitPerimeter=0;entryX=0.558;entryY=0.006;entryDx=0;entryDy=0;entryPerimeter=0;" edge="1" parent="1" source="G6NcszaFxuf0PtNc5N1b-85" target="G6NcszaFxuf0PtNc5N1b-22">
          <mxGeometry relative="1" as="geometry"/>
        </mxCell>
        <mxCell id="G6NcszaFxuf0PtNc5N1b-85" value="buy" style="shape=card;whiteSpace=wrap;html=1;fontSize=28;" parent="1" vertex="1">
          <mxGeometry x="99" y="392" width="163" height="100" as="geometry"/>
        </mxCell>
        <mxCell id="G6NcszaFxuf0PtNc5N1b-102" style="edgeStyle=orthogonalEdgeStyle;rounded=0;orthogonalLoop=1;jettySize=auto;html=1;exitX=0.5;exitY=1;exitDx=0;exitDy=0;entryX=0.5;entryY=0;entryDx=0;entryDy=0;entryPerimeter=0;fontSize=28;" parent="1" source="G6NcszaFxuf0PtNc5N1b-86" target="G6NcszaFxuf0PtNc5N1b-87" edge="1">
          <mxGeometry relative="1" as="geometry"/>
        </mxCell>
        <mxCell id="G6NcszaFxuf0PtNc5N1b-86" value="&lt;span style=&quot;white-space: normal&quot;&gt;isSold, verifyCaller&lt;/span&gt;" style="rounded=0;whiteSpace=wrap;html=1;fontSize=28;" parent="1" vertex="1">
          <mxGeometry x="294.5" y="222" width="166" height="90" as="geometry"/>
        </mxCell>
        <mxCell id="G6NcszaFxuf0PtNc5N1b-144" style="edgeStyle=orthogonalEdgeStyle;rounded=0;orthogonalLoop=1;jettySize=auto;html=1;exitX=0.5;exitY=1;exitDx=0;exitDy=0;exitPerimeter=0;entryX=0.132;entryY=-0.013;entryDx=0;entryDy=0;entryPerimeter=0;fontSize=28;" parent="1" source="G6NcszaFxuf0PtNc5N1b-87" edge="1">
          <mxGeometry relative="1" as="geometry">
            <mxPoint x="378.20799999999963" y="677.5799999999999" as="targetPoint"/>
          </mxGeometry>
        </mxCell>
        <mxCell id="G6NcszaFxuf0PtNc5N1b-87" value="ship" style="shape=card;whiteSpace=wrap;html=1;fontSize=28;" parent="1" vertex="1">
          <mxGeometry x="296.5" y="392" width="163" height="100" as="geometry"/>
        </mxCell>
        <mxCell id="G6NcszaFxuf0PtNc5N1b-108" style="edgeStyle=orthogonalEdgeStyle;rounded=0;orthogonalLoop=1;jettySize=auto;html=1;exitX=0.5;exitY=1;exitDx=0;exitDy=0;entryX=0.5;entryY=0;entryDx=0;entryDy=0;entryPerimeter=0;fontSize=28;" parent="1" source="G6NcszaFxuf0PtNc5N1b-90" target="G6NcszaFxuf0PtNc5N1b-91" edge="1">
          <mxGeometry relative="1" as="geometry"/>
        </mxCell>
        <mxCell id="G6NcszaFxuf0PtNc5N1b-90" value="isShipped, onlyOwner" style="rounded=0;whiteSpace=wrap;html=1;fontSize=28;" parent="1" vertex="1">
          <mxGeometry x="500" y="222" width="166" height="90" as="geometry"/>
        </mxCell>
        <mxCell id="G6NcszaFxuf0PtNc5N1b-148" style="edgeStyle=orthogonalEdgeStyle;rounded=0;orthogonalLoop=1;jettySize=auto;html=1;exitX=0.5;exitY=1;exitDx=0;exitDy=0;exitPerimeter=0;entryX=0.616;entryY=0.004;entryDx=0;entryDy=0;entryPerimeter=0;fontSize=28;" parent="1" source="G6NcszaFxuf0PtNc5N1b-91" edge="1">
          <mxGeometry relative="1" as="geometry">
            <mxPoint x="581.3040000000001" y="683.3600000000001" as="targetPoint"/>
          </mxGeometry>
        </mxCell>
        <mxCell id="G6NcszaFxuf0PtNc5N1b-91" value="recieve" style="shape=card;whiteSpace=wrap;html=1;fontSize=28;" parent="1" vertex="1">
          <mxGeometry x="502" y="392" width="163" height="100" as="geometry"/>
        </mxCell>
        <mxCell id="G6NcszaFxuf0PtNc5N1b-110" value="" style="ellipse;html=1;shape=endState;fillColor=#000000;strokeColor=#ff0000;fontSize=28;" parent="1" vertex="1">
          <mxGeometry x="841" y="87" width="30" height="30" as="geometry"/>
        </mxCell>
        <mxCell id="G6NcszaFxuf0PtNc5N1b-111" value="" style="ellipse;html=1;shape=endState;fillColor=#000000;strokeColor=#ff0000;fontSize=28;" parent="1" vertex="1">
          <mxGeometry x="889" y="837" width="30" height="30" as="geometry"/>
        </mxCell>
        <mxCell id="G6NcszaFxuf0PtNc5N1b-119" style="edgeStyle=orthogonalEdgeStyle;rounded=0;orthogonalLoop=1;jettySize=auto;html=1;exitX=1;exitY=0.5;exitDx=0;exitDy=0;entryX=0;entryY=0.5;entryDx=0;entryDy=0;fontSize=28;" parent="1" source="G6NcszaFxuf0PtNc5N1b-117" target="G6NcszaFxuf0PtNc5N1b-111" edge="1">
          <mxGeometry relative="1" as="geometry"/>
        </mxCell>
        <mxCell id="G6NcszaFxuf0PtNc5N1b-153" style="edgeStyle=orthogonalEdgeStyle;rounded=0;orthogonalLoop=1;jettySize=auto;html=1;exitX=0.5;exitY=1;exitDx=0;exitDy=0;entryX=0.5;entryY=0;entryDx=0;entryDy=0;entryPerimeter=0;fontSize=28;" parent="1" source="G6NcszaFxuf0PtNc5N1b-154" target="G6NcszaFxuf0PtNc5N1b-155" edge="1">
          <mxGeometry relative="1" as="geometry"/>
        </mxCell>
        <mxCell id="G6NcszaFxuf0PtNc5N1b-154" value="isRecieved, onlyOwner" style="rounded=0;whiteSpace=wrap;html=1;fontSize=28;" parent="1" vertex="1">
          <mxGeometry x="690" y="222" width="166" height="90" as="geometry"/>
        </mxCell>
        <mxCell id="G6NcszaFxuf0PtNc5N1b-157" style="edgeStyle=orthogonalEdgeStyle;rounded=0;orthogonalLoop=1;jettySize=auto;html=1;exitX=0.5;exitY=1;exitDx=0;exitDy=0;exitPerimeter=0;entryX=0.837;entryY=-0.007;entryDx=0;entryDy=0;entryPerimeter=0;fontSize=28;" parent="1" source="G6NcszaFxuf0PtNc5N1b-155" edge="1">
          <mxGeometry relative="1" as="geometry">
            <mxPoint x="773.3529999999992" y="679.6199999999999" as="targetPoint"/>
          </mxGeometry>
        </mxCell>
        <mxCell id="G6NcszaFxuf0PtNc5N1b-155" value="purchase" style="shape=card;whiteSpace=wrap;html=1;fontSize=28;" parent="1" vertex="1">
          <mxGeometry x="692" y="392" width="163" height="100" as="geometry"/>
        </mxCell>
      </root>
    </mxGraphModel>
  </diagram>
</mxfile>
